# xmcd
#
# Track frame offsets:
#	150
#	15660
#	35490
#	46485
#	61918
#	77410
#	88690
#	103053
#	114680
#	128243
#	141518
#	157260
#	173165
#	183485
#	197215
#	214095
#
# Disc length: 3044 seconds
#
# Revision: 1
# Processed by: cddbd v1.5.1PL0 Copyright (c) Steve Scherf et al.
# Submitted via: CDex 1.50Beta5
#
DISCID=e70be210
DTITLE=石原裕次郎 - 石原裕次郎 5
DYEAR=1900
DGENRE=
TTITLE0=海
TTITLE1=銀座の恋の物語
TTITLE2=街から街へつむじ風
TTITLE3=孤独の青春
TTITLE4=日本海
TTITLE5=さよなら恋人よ
TTITLE6=俺は行くぜ
TTITLE7=あいつと私
TTITLE8=あいつと私と
TTITLE9=若い命を傾けて
TTITLE10=お前に逢いたいぜ
TTITLE11=アラブの嵐
TTITLE12=でっかい青春
TTITLE13=男と男の生きる街
TTITLE14=銀座の空にも星がある
TTITLE15=東京の日旺日
EXTD=
EXTT0=
EXTT1=
EXTT2=
EXTT3=
EXTT4=
EXTT5=
EXTT6=
EXTT7=
EXTT8=
EXTT9=
EXTT10=
EXTT11=
EXTT12=
EXTT13=
EXTT14=
EXTT15=
PLAYORDER=
